<?xml version="1.0" standalone="no"?>
<!DOCTYPE svg PUBLIC "-//W3C//DTD SVG 20010904//EN"
 "http://www.w3.org/TR/2001/REC-SVG-20010904/DTD/svg10.dtd">
<svg version="1.0" xmlns="http://www.w3.org/2000/svg"
 width="1515.000000pt" height="1515.000000pt" viewBox="0 0 1515.000000 1515.000000"
 preserveAspectRatio="xMidYMid meet">
<metadata>
Created by potrace 1.11, written by Peter Selinger 2001-2013
</metadata>
<g transform="translate(0.000000,1515.000000) scale(0.100000,-0.100000)"
fill="#000000" stroke="none">
<path d="M0 7575 l0 -7575 7575 0 7575 0 0 7575 0 7575 -7575 0 -7575 0 0
-7575z m8816 4991 c144 -38 234 -129 263 -264 16 -75 15 -614 -1 -630 -8 -8
-47 -12 -108 -12 -166 0 -170 9 -170 341 0 266 -6 296 -61 324 -34 18 -95 19
-129 2 -51 -25 -62 -68 -56 -212 8 -201 48 -376 119 -516 18 -36 74 -130 124
-210 193 -307 255 -485 283 -809 26 -301 3 -410 -107 -510 -83 -76 -141 -95
-298 -95 -111 0 -139 3 -190 23 -114 43 -188 130 -214 250 -16 76 -15 634 1
650 8 8 47 12 108 12 166 0 170 -8 170 -350 0 -269 5 -301 51 -334 34 -24 119
-21 152 4 42 34 51 78 43 236 -11 246 -53 440 -130 592 -19 37 -85 146 -148
242 -130 200 -179 307 -213 459 -44 193 -58 449 -30 554 33 129 121 212 265
253 61 17 213 17 276 0z m-4308 -44 c19 -14 35 -37 42 -60 5 -20 35 -441 65
-936 29 -494 55 -900 57 -902 2 -1 32 407 67 909 40 580 67 923 75 942 8 17
26 39 41 49 40 26 135 33 188 12 80 -30 72 29 143 -994 35 -503 65 -920 66
-924 2 -5 29 408 60 918 51 838 59 930 76 953 31 43 79 61 163 61 127 0 128
151 -10 -1280 -71 -733 -125 -1248 -132 -1256 -9 -11 -46 -14 -155 -14 -127 0
-144 2 -153 18 -5 10 -38 365 -73 789 -34 424 -65 770 -67 768 -2 -2 -31 -350
-66 -774 -42 -531 -66 -775 -75 -786 -10 -12 -38 -15 -151 -15 -133 0 -139 1
-153 23 -10 15 -48 381 -130 1232 -64 666 -116 1224 -116 1242 0 45 21 54 121
50 69 -2 91 -7 117 -25z m2718 3 c31 -47 1 -180 -45 -205 -11 -5 -86 -10 -170
-10 l-151 0 0 -465 0 -465 153 0 c106 0 157 -4 165 -12 17 -17 15 -133 -3
-168 -28 -54 -47 -60 -187 -60 l-128 0 0 -450 0 -450 145 0 c165 0 194 -8 216
-62 19 -46 18 -156 -1 -168 -23 -15 -623 -13 -638 2 -17 17 -17 2509 0 2526 9
9 94 12 320 12 l308 0 16 -25z m3648 9 c29 -28 17 -145 -19 -190 -22 -27 -28
-29 -117 -34 l-93 -5 -3 -1132 -2 -1132 -26 -20 c-23 -18 -41 -21 -118 -21
-99 1 -118 8 -136 54 -7 18 -10 395 -10 1142 l0 1114 -83 0 c-94 0 -121 12
-143 66 -21 50 -19 150 4 163 10 7 150 11 374 11 311 0 359 -2 372 -16z m1426
-5259 c0 -13 -532 -15 -4725 -15 -4193 0 -4725 2 -4725 15 0 13 532 15 4725
15 4193 0 4725 -2 4725 -15z m-7471 -2236 c124 -22 225 -86 273 -175 45 -83
50 -138 46 -534 -3 -312 -5 -370 -19 -400 -18 -38 -72 -99 -104 -118 l-20 -12
20 -12 c11 -6 37 -29 58 -52 66 -71 69 -91 65 -553 l-3 -408 -29 -62 c-47
-103 -139 -173 -261 -199 -81 -18 -506 -19 -523 -2 -17 17 -17 2509 0 2526 16
16 406 16 497 1z m2047 -14 c31 -47 1 -180 -45 -205 -11 -5 -86 -10 -170 -10
l-151 0 0 -465 0 -465 153 0 c106 0 157 -4 165 -12 17 -17 15 -133 -3 -168
-28 -54 -47 -60 -187 -60 l-128 0 0 -450 0 -450 145 0 c165 0 194 -8 216 -62
19 -46 18 -156 -1 -168 -23 -15 -623 -13 -638 2 -17 17 -17 2509 0 2526 9 9
94 12 320 12 l308 0 16 -25z m1568 9 c29 -28 17 -145 -19 -190 -22 -27 -28
-29 -117 -34 l-93 -5 -3 -1132 -2 -1132 -26 -20 c-23 -18 -41 -21 -118 -21
-99 1 -118 8 -136 54 -7 18 -10 395 -10 1142 l0 1114 -83 0 c-94 0 -121 12
-143 66 -21 50 -19 150 4 163 10 7 150 11 374 11 311 0 359 -2 372 -16z m1525
2 c7 -8 60 -512 132 -1256 138 -1429 137 -1280 13 -1280 -43 0 -90 6 -112 15
-63 25 -71 51 -83 247 -6 95 -12 179 -14 186 -3 8 -30 12 -90 12 -47 0 -85 -1
-86 -2 0 -2 -6 -86 -13 -188 -14 -205 -21 -226 -81 -254 -22 -11 -61 -16 -114
-16 -73 0 -82 2 -95 23 -12 19 1 168 105 1237 65 668 118 1225 119 1237 1 47
21 53 169 53 106 0 141 -3 150 -14z"/>
<path d="M4610 4365 l0 -448 90 5 c69 4 96 10 112 24 45 41 48 63 48 418 0
439 1 436 -162 444 l-88 4 0 -447z"/>
<path d="M4610 3210 l0 -470 75 0 c100 0 137 16 158 69 15 36 17 90 17 407 0
401 -2 419 -59 448 -20 11 -57 16 -111 16 l-80 0 0 -470z"/>
<path d="M9811 4361 c-2 -66 -60 -1046 -66 -1103 l-5 -58 75 0 c51 0 75 4 75
12 0 36 -71 1156 -74 1168 -2 8 -4 0 -5 -19z"/>
</g>
</svg>
